<svg width="18" height="18" viewBox="0 0 18 18" fill="none" xmlns="http://www.w3.org/2000/svg">
<path d="M17.0002 14.0626V8.63104C17.0002 8.10791 16.9998 7.8462 16.9348 7.60277C16.8772 7.38705 16.7827 7.18291 16.6548 6.99843C16.5105 6.79026 16.3098 6.61763 15.9077 6.27315L11.1077 2.16123C10.3611 1.52165 9.98775 1.20202 9.56763 1.08038C9.19744 0.973205 8.80286 0.973205 8.43266 1.08038C8.01286 1.20193 7.64009 1.52126 6.89461 2.15988L2.09302 6.27315C1.69088 6.61764 1.49029 6.79026 1.34595 6.99843C1.21804 7.18291 1.12279 7.38705 1.06522 7.60277C1.00024 7.8462 1.00024 8.1079 1.00024 8.63104V14.0626C1.00024 14.975 1.00024 15.431 1.15249 15.7908C1.35547 16.2706 1.74456 16.6522 2.23462 16.851C2.60216 17 3.0681 17 3.99999 17C4.93187 17 5.39833 17 5.76587 16.851C6.25593 16.6522 6.64491 16.2707 6.8479 15.7909C7.00014 15.431 7.00024 14.9749 7.00024 14.0625V13.0835C7.00024 12.0021 7.89567 11.1255 9.00024 11.1255C10.1048 11.1255 11.0002 12.0021 11.0002 13.0835V14.0625C11.0002 14.9749 11.0002 15.431 11.1525 15.7909C11.3555 16.2707 11.7446 16.6522 12.2346 16.851C12.6022 17 13.0681 17 14 17C14.9319 17 15.3983 17 15.7659 16.851C16.2559 16.6522 16.6449 16.2706 16.8479 15.7908C17.0001 15.431 17.0002 14.975 17.0002 14.0626Z" stroke="#1B9EF0" stroke-width="2" stroke-linecap="round" stroke-linejoin="round"/>
</svg>
