<svg width="18" height="19" viewBox="0 0 18 19" fill="none" xmlns="http://www.w3.org/2000/svg">
<path d="M1 12.1599V14.1684C1 15.4184 1 16.043 1.19376 16.5204C1.3642 16.9404 1.63597 17.2825 1.97048 17.4965C2.35039 17.7395 2.84797 17.7395 3.84167 17.7395H17M1 12.1599V1M1 12.1599L4.4252 8.57637L4.42804 8.57351C5.04766 7.92525 5.35807 7.60049 5.69465 7.46857C6.09227 7.31274 6.52057 7.33739 6.90532 7.53778C7.23149 7.70765 7.51749 8.06672 8.08949 8.78485L8.09523 8.79206C8.67611 9.52134 8.96732 9.88695 9.29872 10.0565C9.69089 10.257 10.1275 10.2743 10.5294 10.1069C10.8702 9.96501 11.1814 9.62369 11.8037 8.94006L16.9998 3.23193" stroke="#1B9EF0" stroke-width="2" stroke-linecap="round" stroke-linejoin="round"/>
</svg>
