<svg width="23" height="23" viewBox="0 0 23 23" fill="none" xmlns="http://www.w3.org/2000/svg">
<path d="M21.0014 11.178C20.1748 7.44137 18.9489 5.05781 16.984 4.47697C16.6035 4.36596 16.2089 4.31058 15.8125 4.31256C14.6045 4.31256 13.6513 5.03131 11.5 5.03131C9.34867 5.03131 8.39363 4.31256 7.18747 4.31256C6.77453 4.31042 6.36329 4.36576 5.9656 4.47697C3.99802 5.05781 2.78244 7.44361 1.94644 11.178C1.09292 14.9923 1.24746 18.0061 2.91585 18.5847C4.08382 18.989 5.12826 18.153 6.11743 16.9226C7.24048 15.521 8.62363 15.0898 11.5 15.0898C14.3763 15.0898 15.7056 15.521 16.8304 16.9226C17.8187 18.1539 18.9017 18.9796 20.0387 18.5919C21.8814 17.9625 21.8554 15.0372 21.0014 11.178Z" stroke="#1B9EF0" stroke-width="2" stroke-miterlimit="10"/>
<path d="M13.2188 10.0625C13.2187 10.1186 13.1733 10.1641 13.1172 10.1641C13.0749 10.1641 13.0387 10.1383 13.0234 10.1016L13.0156 10.0625C13.0156 10.0064 13.0611 9.96094 13.1172 9.96094L13.1562 9.96875C13.1929 9.98406 13.2188 10.0203 13.2188 10.0625Z" fill="#1B9EF0" stroke="#1B9EF0" stroke-width="2"/>
<path d="M15.1504 11.9551L15.1318 11.9453C15.1198 11.9404 15.1069 11.9375 15.0938 11.9375C15.0802 11.9375 15.0669 11.9402 15.0547 11.9453L15.0225 11.9668H15.0215C15.0074 11.9808 15.0001 11.9994 14.9961 12.0186L14.9922 12.0391C14.9922 12.0591 14.9977 12.079 15.0088 12.0957C15.0199 12.1124 15.0362 12.1251 15.0547 12.1328C15.0732 12.1405 15.0936 12.1425 15.1133 12.1387C15.1328 12.1348 15.1509 12.1253 15.165 12.1113V12.1104C15.1792 12.0962 15.1894 12.0783 15.1934 12.0586C15.1946 12.0521 15.1943 12.0456 15.1943 12.0391C15.1943 12.0258 15.1926 12.0124 15.1875 12C15.1836 11.9907 15.1782 11.9823 15.1719 11.9746L15.1504 11.9551ZM15.1943 12.0391H14.9922M15.1943 12.0391H15.0928M14.9922 12.0391H15.0928M15.1504 11.9551L15.0938 12.0381L15.0928 12.0391M15.0928 12.0391V12.0381H15.0938M15.0938 12.0381L15.1504 11.9551" fill="#1B9EF0" stroke="#1B9EF0" stroke-width="2"/>
<path d="M15.1953 8.08594C15.1953 8.14203 15.1498 8.1875 15.0938 8.1875C15.0515 8.1875 15.0153 8.1617 15 8.125L14.9922 8.08594C14.9922 8.02985 15.0377 7.98438 15.0938 7.98438L15.1328 7.99219C15.1695 8.0075 15.1953 8.04369 15.1953 8.08594Z" fill="#1B9EF0" stroke="#1B9EF0" stroke-width="2"/>
<path d="M17.1719 10.0625C17.1719 10.1186 17.1264 10.1641 17.0703 10.1641C17.0281 10.1641 16.9919 10.1383 16.9766 10.1016L16.9688 10.0625C16.9688 10.0064 17.0142 9.96094 17.0703 9.96094L17.1094 9.96875C17.1461 9.98406 17.1719 10.0203 17.1719 10.0625Z" fill="#1B9EF0" stroke="#1B9EF0" stroke-width="2"/>
<path d="M9.34375 10.0625H5.03125" stroke="#1B9EF0" stroke-width="2" stroke-linecap="round" stroke-linejoin="round"/>
<path d="M7.1875 7.90625V12.2187" stroke="#1B9EF0" stroke-width="2" stroke-linecap="round" stroke-linejoin="round"/>
</svg>
