<svg width="44" height="37" viewBox="0 0 44 37" fill="none" xmlns="http://www.w3.org/2000/svg">
<path d="M21.5652 12.087V20.087M4.93042 24.4866C2.94538 27.6369 1.95315 29.2127 2.10141 30.5052C2.23073 31.6327 2.87651 32.6569 3.87743 33.3232C5.02457 34.0869 7.00838 34.0869 10.9758 34.0869H32.1546C36.122 34.0869 38.1055 34.0869 39.2526 33.3232C40.2535 32.6569 40.8996 31.6327 41.0289 30.5052C41.1772 29.2127 40.1853 27.6369 38.2002 24.4866L27.6146 7.68662C25.6295 4.53626 24.6366 2.96136 23.3408 2.43273C22.2105 1.97164 20.9191 1.97164 19.7889 2.43273C18.4936 2.96114 17.5012 4.53606 15.5179 7.68379L4.93042 24.4866ZM21.676 26.0869V26.2869L21.4565 26.2873V26.0869H21.676Z" stroke="#FF7B54" stroke-width="4.17391" stroke-linecap="round" stroke-linejoin="round"/>
</svg>
